<?xml version="1.0" encoding="UTF-8" standalone="no"?>
<svg
   xmlns:dc="http://purl.org/dc/elements/1.1/"
   xmlns:cc="http://creativecommons.org/ns#"
   xmlns:rdf="http://www.w3.org/1999/02/22-rdf-syntax-ns#"
   xmlns:svg="http://www.w3.org/2000/svg"
   xmlns="http://www.w3.org/2000/svg"
   id="svg8"
   version="1.1"
   viewBox="0 0 108.10431 13.427882"
   height="13.427882mm"
   width="108.10431mm">
  <defs
     id="defs2" />
  <metadata
     id="metadata5">
    <rdf:RDF>
      <cc:Work
         rdf:about="">
        <dc:format>image/svg+xml</dc:format>
        <dc:type
           rdf:resource="http://purl.org/dc/dcmitype/StillImage" />
        <dc:title></dc:title>
      </cc:Work>
    </rdf:RDF>
  </metadata>
  <g
     transform="translate(-27.329252,-98.867757)"
     id="layer1">
    <g
       id="text817"
       style="font-style:normal;font-variant:normal;font-weight:normal;font-stretch:normal;font-size:22.57777786px;line-height:0.25;font-family:'Upperercase and Lowerercase';-inkscape-font-specification:'Upperercase and Lowerercase';letter-spacing:0px;word-spacing:0px;stroke-width:0.26458332"
       aria-label="DEAD NEURON">
      <path
         id="path823"
         style="stroke-width:0.26458332"
         d="m 27.538714,99.599576 q 0,-0.121268 1.576476,-0.192926 2.524566,0.9977 2.524566,1.19063 2.105642,1.37252 2.452908,2.38676 1.703255,1.83554 1.703255,3.58841 -0.07717,0.49609 -1.091406,1.65916 0,0.21497 -1.9954,1.65916 -0.639409,0.76618 -3.593923,2.03949 0,-0.0772 -1.659158,-0.13229 -0.12678,0 -0.12678,-2.23793 0.08268,-0.59532 0.0441,-4.31602 -0.03859,0 0.03858,-3.32383 -0.03858,-2.210371 0.0441,-2.210371 z m 1.367014,2.320614 q 0.06615,0.76619 -0.03859,1.32843 0,4.42075 0.104731,4.65226 -0.02205,2.08359 0.143316,2.08359 0.380338,0 1.659158,-0.66146 3.114366,-2.39227 3.318316,-3.25217 0.04961,-0.57877 -0.661459,-1.43867 -1.593012,-2.14974 -4.316015,-2.98759 z" />
      <path
         id="path825"
         style="stroke-width:0.26458332"
         d="m 37.620441,99.930305 q 0.727605,0.0441 1.438672,-0.03858 2.254471,-0.0441 3.985287,0.165365 2.574175,0.0441 2.574175,0.20395 0.03858,0.0937 0.01654,0.9977 0,0.24254 -2.590712,0.29215 0,0.0937 -3.985287,0.24804 -0.319705,0.0165 -0.374826,0.12127 0,1.68672 0.126779,1.9954 0,0.16537 2.574176,0.16537 1.091406,0 1.091406,0.16536 0.110243,0.30868 0,0.9977 0,0.12127 -1.758377,0.0827 -1.659158,0 -1.659158,0.0386 -0.286632,0 -0.286632,1.53789 0,0.24805 0.953603,0.20946 2.651345,-0.0441 2.651345,0.0276 0.192926,0 0.12678,1.09141 0,0.28663 -2.447396,0.24804 -1.163064,0.022 -1.163064,0.0827 -0.07717,0 -0.121268,1.65915 0,0.33625 1.118967,0.33625 0.292145,0.0717 2.656858,0 1.477257,0.0331 2.155252,-0.0441 0.711068,0 0.711068,0.37482 0.07717,1.03629 -0.0441,1.03629 -0.413411,0 -2.656857,-0.12678 -1.785938,0.11576 -3.654558,0.17088 -1.74184,-0.0331 -1.74184,-0.0827 -0.209462,0 -0.165365,-1.66467 0.02756,0 0,-4.97747 0.02205,0 -0.0441,-3.98529 0,-0.9977 0.01654,-0.9977 0.159852,-0.22048 0.496093,-0.33073 z" />
      <path
         id="path827"
         style="stroke-width:0.26458332"
         d="m 52.354424,100.59728 q 1.604037,-0.0441 1.604037,0 0.429948,0 0.429948,3.31831 0.170877,3.95221 0.418923,4.64675 0.05512,0 0.33073,2.65685 0,0.37483 -1.620573,0.37483 -0.248047,0 -0.248047,-1.37253 0,-0.71106 -0.08268,-0.71106 -3.345877,-1.0859 -4.316016,-1.42214 -0.325217,0 -0.540191,2.1332 -0.407899,1.70326 -0.457509,1.70326 -1.30638,-0.0386 -1.367014,-0.37483 0,-0.0937 0.705556,-4.81211 0.374826,-2.40881 0.854384,-4.48138 0.176388,-1.49379 0.474045,-1.49379 0,-0.0386 3.814409,-0.16536 z m -2.568663,1.98988 q -0.07717,0 -0.622873,2.65686 0,0.0937 0.369314,0.0937 0.08819,0 2.656858,-0.65044 0.705555,0 0.66697,-0.60633 -0.09371,-1.73082 -0.336241,-1.73082 -2.734028,0.0331 -2.734028,0.23702 z m 2.237934,3.65456 q -3.197048,0.50161 -3.197048,0.66146 3.886067,0.98667 4.029383,1.18511 l 0.264584,-0.18741 q 0.02205,-1.78594 -0.264584,-1.78594 -0.832335,0.0937 -0.832335,0.12678 z" />
      <path
         id="path829"
         style="stroke-width:0.26458332"
         d="m 57.260241,99.599576 q 0,-0.121268 1.576476,-0.192926 2.524566,0.9977 2.524566,1.19063 2.105642,1.37252 2.452908,2.38676 1.703255,1.83554 1.703255,3.58841 -0.07717,0.49609 -1.091406,1.65916 0,0.21497 -1.9954,1.65916 -0.639409,0.76618 -3.593923,2.03949 0,-0.0772 -1.659158,-0.13229 -0.12678,0 -0.12678,-2.23793 0.08268,-0.59532 0.0441,-4.31602 -0.03859,0 0.03859,-3.32383 -0.03859,-2.210371 0.0441,-2.210371 z m 1.367014,2.320614 q 0.06615,0.76619 -0.03858,1.32843 0,4.42075 0.104731,4.65226 -0.02205,2.08359 0.143316,2.08359 0.380338,0 1.659158,-0.66146 3.114366,-2.39227 3.318316,-3.25217 0.04961,-0.57877 -0.661459,-1.43867 -1.593012,-2.14974 -4.316015,-2.98759 z" />
      <path
         id="path831"
         style="stroke-width:0.26458332"
         d="m 72.291882,100.26103 q 1.71428,0.011 1.71428,0.23703 0.584288,0.48507 1.394575,0.76067 2.133203,1.47175 3.649045,2.32613 0.286632,0.30317 0.931553,0.56775 0.209462,0 0.143316,-0.90399 -0.01654,-2.98759 0.09371,-2.98759 0,-0.0827 1.091406,-0.0386 0.292144,0 0.292144,1.36701 -0.08268,1.84657 -0.08268,2.98759 0.159853,3.23563 0.159853,4.31602 -0.07166,0 -0.159853,2.65685 0,0.24805 -1.207161,0.24805 -0.314193,0 -0.992188,-0.62839 -0.523654,-0.17638 -1.995399,-1.32291 -0.132292,0 -2.656858,-1.56545 -0.931554,-0.60083 -0.992187,-0.60083 -0.165365,0 -0.165365,2.5411 0.08268,1.16858 0,1.32843 0,0.12678 -1.163064,0.12678 -0.352778,-0.0165 -0.374827,-0.12678 0.08268,-0.66697 0.08268,-1.98988 -0.08268,0 0.08268,-2.65686 -0.02756,-6.58151 0.15434,-6.64215 z m 1.339453,1.65916 q 0,0.0937 0,1.32843 0.06615,0.21497 0,1.9954 0,0.97565 0.540191,0.9977 0.391363,0.0386 1.659158,-0.66697 2.028473,-0.85438 2.028473,-0.9977 0,-0.1819 -1.444184,-0.99219 -1.080382,-0.41341 -1.080382,-0.5016 -1.653646,-1.19614 -1.703256,-1.16307 z m 5.60586,3.65456 q -3.406511,1.63711 -3.406511,1.65916 0,0.0882 1.163065,0.62287 2.298567,1.83004 2.987586,1.9513 0.165365,0 0.165365,-3.23563 0,-1.11897 -0.496094,-1.14102 -0.225998,0.022 -0.413411,0.14332 z" />
      <path
         id="path833"
         style="stroke-width:0.26458332"
         d="m 84.187106,99.930305 q 0.727604,0.0441 1.438672,-0.03858 2.254471,-0.0441 3.985287,0.165365 2.574175,0.0441 2.574175,0.20395 0.03859,0.0937 0.01654,0.9977 0,0.24254 -2.590711,0.29215 0,0.0937 -3.985287,0.24804 -0.319705,0.0165 -0.374826,0.12127 0,1.68672 0.126779,1.9954 0,0.16537 2.574176,0.16537 1.091406,0 1.091406,0.16536 0.110243,0.30868 0,0.9977 0,0.12127 -1.758377,0.0827 -1.659158,0 -1.659158,0.0386 -0.286632,0 -0.286632,1.53789 0,0.24805 0.953603,0.20946 2.651345,-0.0441 2.651345,0.0276 0.192925,0 0.12678,1.09141 0,0.28663 -2.447396,0.24804 -1.163065,0.022 -1.163065,0.0827 -0.07717,0 -0.121267,1.65915 0,0.33625 1.118967,0.33625 0.292144,0.0717 2.656858,0 1.477257,0.0331 2.155252,-0.0441 0.711067,0 0.711067,0.37482 0.07717,1.03629 -0.0441,1.03629 -0.413411,0 -2.656858,-0.12678 -1.785937,0.11576 -3.654557,0.17088 -1.74184,-0.0331 -1.74184,-0.0827 -0.209462,0 -0.165365,-1.66467 0.02756,0 0,-4.97747 0.02205,0 -0.0441,-3.98529 0,-0.9977 0.01654,-0.9977 0.159853,-0.22048 0.496094,-0.33073 z" />
      <path
         id="path835"
         style="stroke-width:0.26458332"
         d="m 94.351515,100.25001 q 0.903994,-0.0386 0.937066,0 0.110243,0 0.220487,2.16076 0.0441,1.82453 -0.03859,1.82453 0,1.32843 0.08819,1.32843 l 0.286632,0.28663 q 1.730816,-1.07487 1.989887,-1.07487 0.87092,0 2.656853,1.06384 0.37483,0 0.37483,-0.2756 0.0386,-2.43638 -0.0827,-3.31832 0,-2.05052 0.0386,-2.05052 1.37804,-0.0386 1.37804,0.0551 0.15985,0 0.11576,3.32383 0.0441,0 0.0441,3.97977 -0.11575,2.9931 -0.25907,2.9931 -0.57326,1.32843 -2.607245,1.60955 -0.198437,0.17088 -2.320616,0.13229 -2.215886,-0.32522 -2.822223,-1.41111 -0.760677,-0.98667 -0.760677,-3.98529 0.05512,-3.73172 0.05512,-6.3059 0,-0.26458 0.705555,-0.33624 z m 3.263195,5.98069 q -0.777214,0.24253 -0.777214,0.28663 -1.201649,0.76619 -1.201649,1.37252 0,1.73082 0.87092,2.21038 0.02205,0.2756 1.989887,0.2756 2.160766,0 2.243446,-2.15525 0.0441,-0.90399 -0.915017,-1.27882 -0.74414,-0.73863 -1.328429,-0.85438 -0.760677,0.0221 -0.881944,0.14332 z" />
      <path
         id="path837"
         style="stroke-width:0.26458332"
         d="m 107.69093,98.932605 q 0.31971,-0.110243 1.82452,-0.03307 2.23794,0.556728 2.28203,1.361495 0,1.08039 -1.28433,2.43638 -0.0937,0.15985 -0.83233,0.55121 0,0.12678 1.55994,0.66697 0.81028,0.44649 0.78823,1.98989 -0.16536,0.88746 -0.85438,1.49379 -0.0827,0.44649 0.28112,0.50161 1.08038,1.91823 1.09141,2.98758 0,0.9977 -0.20946,0.9977 -1.19614,0.0441 -1.27331,0 -0.22049,0 -0.42444,-2.32612 -0.35829,-1.70326 -1.62057,-1.65916 -2.82222,0.68902 -2.82222,0.82682 -0.16537,0 -0.14332,2.16076 0.0165,1.03629 -0.18741,1.03629 -0.66697,-0.0827 -1.32843,0 -0.16537,0 -0.0827,-2.36471 0.0606,-4.15066 0.0827,-4.15066 0.0386,0 0.0386,-4.15065 0,-1.565445 0.62288,-1.565445 1.03077,-0.413411 2.49149,-0.760677 z m 0.38585,1.664675 q 0,0.0496 -1.21818,0.36931 -0.70556,0 -0.66146,0.45751 0.12126,1.82452 0.22048,1.82452 0.15434,0.0441 0.44098,-0.0386 2.3592,-1.01424 3.11436,-2.28204 0,-0.19843 -0.62287,-0.33072 -0.74965,-0.0882 -1.27331,0 z m -0.38585,3.97977 q 0,0.0331 -1.32843,0.33624 -0.29214,0 -0.29214,1.32843 -0.0386,1.41111 0.12678,1.41111 0,-0.0331 2.32613,-0.66697 1.79145,-0.4079 1.8631,-1.74184 0,-0.76619 -0.87092,-0.87092 -1.73633,0 -1.82452,0.20395 z" />
      <path
         id="path839"
         style="stroke-width:0.26458332"
         d="m 117.55217,100.928 q 0.16536,-0.29214 2.24344,-0.29214 2.33164,0.29766 3.46164,1.9513 1.22921,1.8576 1.22921,3.98529 -0.51263,3.47266 -2.86632,4.64674 -1.48829,0.87092 -2.4915,0.87092 -1.91823,-0.022 -3.4506,-0.87092 -1.91272,-1.29535 -2.19384,-4.81211 -0.0386,-1.05282 0.38034,-1.83003 0.53468,-1.18511 1.94579,-2.70096 1.24023,-0.73862 1.74184,-0.94809 z m 0.46853,1.32843 q -0.79375,0.31971 -1.43867,0.99219 -1.55994,1.30638 -1.72531,2.9931 0,1.55994 0.47956,2.32062 1.0859,1.56545 3.1309,2.02847 2.2655,0.006 2.98759,-0.97565 1.48828,-1.86862 1.74184,-3.37344 0,-1.3615 -0.41341,-1.83003 -0.56775,-1.63711 -2.98759,-2.28204 -1.61506,-0.0386 -1.77491,0.12678 z" />
      <path
         id="path841"
         style="stroke-width:0.26458332"
         d="m 126.0464,100.26103 q 1.71427,0.011 1.71427,0.23703 0.58429,0.48507 1.39458,0.76067 2.1332,1.47175 3.64904,2.32613 0.28664,0.30317 0.93156,0.56775 0.20946,0 0.14331,-0.90399 -0.0165,-2.98759 0.0937,-2.98759 0,-0.0827 1.09141,-0.0386 0.29214,0 0.29214,1.36701 -0.0827,1.84657 -0.0827,2.98759 0.15985,3.23563 0.15985,4.31602 -0.0717,0 -0.15985,2.65685 0,0.24805 -1.20716,0.24805 -0.3142,0 -0.99219,-0.62839 -0.52365,-0.17638 -1.9954,-1.32291 -0.13229,0 -2.65686,-1.56545 -0.93155,-0.60083 -0.99218,-0.60083 -0.16537,0 -0.16537,2.5411 0.0827,1.16858 0,1.32843 0,0.12678 -1.16306,0.12678 -0.35278,-0.0165 -0.37483,-0.12678 0.0827,-0.66697 0.0827,-1.98988 -0.0827,0 0.0827,-2.65686 -0.0276,-6.58151 0.15435,-6.64215 z m 1.33945,1.65916 q 0,0.0937 0,1.32843 0.0661,0.21497 0,1.9954 0,0.97565 0.54019,0.9977 0.39136,0.0386 1.65916,-0.66697 2.02847,-0.85438 2.02847,-0.9977 0,-0.1819 -1.44418,-0.99219 -1.08039,-0.41341 -1.08039,-0.5016 -1.65364,-1.19614 -1.70325,-1.16307 z m 5.60586,3.65456 q -3.40651,1.63711 -3.40651,1.65916 0,0.0882 1.16306,0.62287 2.29857,1.83004 2.98759,1.9513 0.16536,0 0.16536,-3.23563 0,-1.11897 -0.49609,-1.14102 -0.226,0.022 -0.41341,0.14332 z" />
    </g>
    <text
       id="text821"
       y="152.4241"
       x="30.427082"
       style="font-style:normal;font-variant:normal;font-weight:normal;font-stretch:normal;font-size:22.57777786px;line-height:0.25;font-family:'Upperercase and Lowerercase';-inkscape-font-specification:'Upperercase and Lowerercase';letter-spacing:0px;word-spacing:0px;stroke-width:0.26458332"
       xml:space="preserve"><tspan
         style="stroke-width:0.26458332"
         y="160.89076"
         x="30.427082"
         id="tspan819" /></text>
  </g>
</svg>
